<?xml version="1.0" standalone="no"?>
<!DOCTYPE svg PUBLIC "-//W3C//DTD SVG 20010904//EN"
 "http://www.w3.org/TR/2001/REC-SVG-20010904/DTD/svg10.dtd">
<svg version="1.0" xmlns="http://www.w3.org/2000/svg"
 width="272.000000pt" height="297.000000pt" viewBox="0 0 272.000000 297.000000"
 preserveAspectRatio="xMidYMid meet">

<g transform="translate(0.000000,297.000000) scale(0.100000,-0.100000)"
fill="#000000" stroke="none">
<path d="M1505 2759 c-186 -107 -992 -570 -1367 -785 l-138 -79 0 -605 0 -605
377 -219 c208 -121 431 -250 495 -288 67 -39 128 -68 144 -68 17 0 201 100
508 276 265 152 640 367 834 478 242 138 354 207 357 221 3 11 4 149 3 307
l-3 286 -240 -137 c-305 -175 -1019 -585 -1235 -710 -153 -88 -169 -95 -220
-95 -50 -1 -65 5 -170 65 -594 344 -742 429 -789 456 l-53 30 58 35 c33 20
212 123 399 230 187 107 511 293 720 414 209 120 407 233 440 251 71 39 119
42 178 12 39 -21 846 -485 895 -515 l22 -14 0 304 0 305 -117 69 c-389 228
-856 494 -871 498 -9 2 -109 -49 -227 -117z"/>
<path d="M1264 1826 c-98 -31 -190 -125 -220 -224 -86 -288 199 -541 472 -417
73 32 129 87 163 159 38 77 46 139 31 220 -22 120 -118 227 -234 261 -60 18
-156 18 -212 1z"/>
</g>
</svg>
